<?xml version="1.0" encoding="UTF-8" standalone="no"?><svg width="235" viewBox="0 0 235 54" height="54" fill="none" xmlns="http://www.w3.org/2000/svg">
  <g clip-path="url(#clip0_616_182)">
    <path fill="#FF5A00" d="M0 30.8319C0 25.5671 5.65749 24.8799 7.53514 24.8799H11.8304V24.4871C11.8304 23.7385 11.5113 22.5849 10.4068 22.0572C8.86054 21.2473 5.78022 21.505 3.20305 23.1249C2.88397 23.3213 2.49126 23.2476 2.45444 22.8304L2.29491 20.2778C2.28263 20.1428 2.33172 20.0201 2.45444 19.9587C4.25846 18.891 6.43064 18.3388 8.50465 18.3388C10.5787 18.3388 12.7999 18.9524 13.9658 20.1796C15.0948 21.37 15.6103 23.1863 15.6103 25.518V35.8267C15.6103 36.1212 15.3894 36.2807 15.1194 36.2807H6.43064C4.49163 36.2807 2.96988 35.9249 1.87765 35.0535C0.650428 34.084 0 32.6604 0 30.881V30.8319ZM3.9762 30.8564C3.9762 31.5314 4.29528 32.0468 4.88434 32.5377C5.46114 32.955 6.0502 33.1513 6.70063 33.1513H11.8304V28.0461H7.7315C4.66344 28.0461 3.9762 29.8869 3.9762 30.8564ZM18.3592 11.6013C18.3592 11.3436 18.5188 11.0859 18.8133 11.0859H21.7586C22.0532 11.0859 22.3109 11.3436 22.3109 11.6013V35.8389C22.3109 36.1335 22.0532 36.293 21.7586 36.293H18.8133C18.5188 36.293 18.3592 36.1335 18.3592 35.8389V11.6013ZM25.244 11.6013C25.244 11.3436 25.5017 11.0859 25.7594 11.0859H28.7293C28.987 11.0859 29.1833 11.3436 29.1833 11.6013V35.8389C29.1833 36.1335 28.987 36.293 28.7293 36.293H25.7594C25.5017 36.293 25.244 36.1335 25.244 35.8389V11.6013ZM31.8096 24.8553C32.5582 21.8854 34.8163 18.3633 40.0811 18.3633C47.2849 18.3633 48.193 25.0517 47.9721 28.2915C47.9353 28.5861 47.7512 28.7824 47.4567 28.7824H35.8226C36.019 31.0773 37.9825 32.7586 40.3142 32.955C42.646 33.1145 44.4868 32.5009 46.0699 31.5682C46.4626 31.2737 46.7449 31.5069 46.7449 31.9855V34.219C46.7449 34.7713 46.7081 34.9676 46.389 35.1272C45.0022 35.9371 43.1246 36.4157 40.2774 36.293C37.4916 36.2317 34.8531 35.1272 33.2332 32.8691C32.0673 31.2491 31.4905 29.3101 31.4905 27.3466C31.4905 26.463 31.5887 25.6285 31.8096 24.8553ZM43.7996 25.5548C43.7996 22.7445 41.7992 21.775 40.0811 21.775C36.9148 21.775 35.884 24.2662 35.884 25.5548H43.7996ZM55.4091 43.3986V40.7846C55.4091 40.3674 55.7282 40.2692 56.1577 40.3674C56.9063 40.4288 58.4526 40.5883 59.5571 40.5269C61.2384 40.3919 63.791 39.852 63.791 36.9066V34.7713C62.3306 35.7039 60.5634 36.2562 58.7226 36.2562C55.9736 36.2562 53.2983 35.0903 51.6415 32.8323C49.408 29.7274 49.408 24.9167 51.6415 21.8363C53.286 19.5414 55.9736 18.351 58.7226 18.351C61.5084 18.351 64.1837 19.5414 65.8282 21.8363C66.9941 23.3826 67.5095 25.3585 67.5095 27.2975V35.8267C67.5095 36.9925 67.3745 38.3179 67.0186 39.4102C66.5277 40.9319 65.595 42.1837 64.2083 42.9691C62.3061 44.0736 59.6798 44.1595 55.8631 43.8036C55.5686 43.8282 55.4091 43.6318 55.4091 43.3986ZM54.4396 29.4083C55.0532 31.3473 56.5995 32.8691 58.7103 32.8691C63.4965 32.8691 63.6192 27.9847 63.6192 27.3098C63.6192 26.6348 63.4842 21.7873 58.7103 21.7873C56.6118 21.7873 55.0532 23.3336 54.4396 25.248C54.2432 25.8248 54.0837 26.6348 54.0837 27.322C54.0837 27.9847 54.2432 28.7947 54.4396 29.4083ZM70.0498 25.6285C70.0498 23.0145 71.2771 21.5173 72.2466 20.4864C73.572 19.1978 75.4742 18.351 77.6095 18.351C77.9286 18.351 79.0945 18.3878 79.6467 18.5719C80.0394 18.6333 80.1376 18.8665 80.1376 19.3819V21.4927C80.1376 21.91 79.8185 22.1431 79.4258 22.0695C76.1 21.3577 74.0628 22.8181 74.0628 25.9107V35.8389C74.0628 36.1335 73.8051 36.293 73.5106 36.293H70.6021C70.283 36.293 70.0498 36.1335 70.0498 35.8389V25.6285ZM82.5307 21.8486C84.1752 19.5537 86.826 18.3633 89.5749 18.3633C92.3607 18.3633 94.9993 19.5537 96.7174 21.8486C97.8464 23.3949 98.3987 25.4076 98.3987 27.3098C98.3987 29.2856 97.8464 31.2246 96.7174 32.8323C94.9993 35.0903 92.3485 36.2562 89.5749 36.2562C86.826 36.2562 84.1752 35.0903 82.5307 32.8323C81.3648 31.2123 80.788 29.2733 80.788 27.3098C80.7758 25.3953 81.3648 23.3949 82.5307 21.8486ZM85.3042 29.4083C85.9792 31.3473 87.4641 32.8691 89.5749 32.8691C91.6858 32.8691 93.2566 31.3473 93.907 29.4083C94.1034 28.7947 94.2629 28.0215 94.2629 27.3098C94.2629 26.6348 94.1034 25.8248 93.907 25.2357C93.2566 23.3336 91.6735 21.775 89.5749 21.775C87.4764 21.775 85.9914 23.3213 85.3042 25.2357C85.0833 25.8125 84.9851 26.6225 84.9851 27.3098C84.9851 28.0215 85.0833 28.7947 85.3042 29.4083Z"></path>
    <path fill="white" d="M113.665 36.3912C110.916 36.3912 106.535 35.7653 106.535 33.225C106.535 32.1205 107.357 31.2982 108.499 31.2982C109.1 31.2982 109.554 31.5314 110.106 31.8014C110.941 32.2186 112.009 32.7586 114.119 32.7586C116.647 32.7586 118.083 31.9732 118.083 30.5742C118.083 26.9907 106.867 29.4574 106.867 22.18C106.867 18.2651 109.861 15.8475 115.457 15.8475C117.801 15.8475 121.52 16.277 121.52 18.7806C121.52 19.9096 120.697 20.7073 119.568 20.7073C119.016 20.7073 118.648 20.5109 118.206 20.29C117.556 19.9464 116.733 19.5169 114.868 19.5169C112.377 19.5169 111.051 20.2655 111.051 21.6277C111.051 25.7266 122.33 22.7813 122.33 30.1324C122.317 33.9245 119.176 36.3912 113.665 36.3912Z"></path>
    <path fill="white" d="M145.831 36.3912C144.689 36.3912 143.781 35.483 143.781 34.3417V23.5667L138.148 31.7646C137.731 32.3782 137.032 32.6727 136.406 32.685C135.78 32.685 135.08 32.3782 134.663 31.7646L129.03 23.5667V34.3417C129.03 35.483 128.122 36.3912 126.981 36.3912C125.839 36.3912 124.931 35.483 124.931 34.3417V17.9215C124.931 16.8784 125.68 15.872 127.103 15.872C128.11 15.872 128.92 16.3629 129.484 17.1852L136.479 27.3711L143.401 17.1852C143.953 16.3752 144.714 15.872 145.708 15.872C147.132 15.872 147.88 16.8784 147.88 17.9215V34.3417C147.88 35.483 146.972 36.3912 145.831 36.3912Z"></path>
    <path fill="white" d="M151.807 36.3912C150.629 36.3912 149.39 35.164 150.077 33.7036L157.894 17.0011C158.25 16.2402 159.06 15.8598 159.858 15.8598C160.656 15.8598 161.466 16.2402 161.821 17.0011L169.541 33.4827C170.228 34.9553 169.062 36.3912 167.675 36.3912C166.902 36.3912 166.178 35.9739 165.822 35.2253L164.067 31.47H155.342L153.538 35.3235C153.206 36.023 152.519 36.3912 151.807 36.3912ZM162.546 28.0093L159.698 21.8732L156.851 28.0093H162.546Z"></path>
    <path fill="white" d="M173.762 36.3912C172.621 36.3912 171.713 35.483 171.713 34.3417V18.216C171.713 17.0747 172.621 16.1666 173.762 16.1666L181.089 16.1788C185.85 16.1911 188.624 18.6946 188.624 22.769C188.624 25.7512 187.016 27.9111 184.501 28.9051L187.716 33.1022C188.01 33.4949 188.145 33.9122 188.145 34.3908C188.145 35.5935 187.311 36.428 186.084 36.4035C185.421 36.3912 184.856 36.1212 184.451 35.5935L179.8 29.5065H175.812V34.3417C175.812 35.483 174.904 36.3912 173.762 36.3912ZM180.696 25.9843C183.2 25.9843 184.525 24.9535 184.525 22.9899C184.525 21.0264 183.2 19.9955 180.696 19.9955H175.812V25.9966L180.696 25.9843Z"></path>
    <path fill="white" d="M196.613 20.1428H191.606C190.502 20.1428 189.63 19.2715 189.63 18.167C189.63 17.0625 190.502 16.1911 191.606 16.1911H205.732C206.836 16.1911 207.707 17.0625 207.707 18.167C207.707 19.2715 206.836 20.1428 205.732 20.1428H200.724V34.3417C200.724 35.4831 199.816 36.3912 198.675 36.3912C197.534 36.3912 196.626 35.4831 196.626 34.3417L196.613 20.1428Z"></path>
    <path fill="white" d="M224.576 27.5061L219.839 27.4693L217.716 15.8966L226.859 15.958L224.576 27.5061Z"></path>
    <path fill="#FF5A00" d="M224.576 27.5061L219.839 27.4693L217.716 15.8966L226.859 15.958L224.576 27.5061ZM222.147 36.563C220.318 36.563 218.833 35.0658 218.845 33.2373C218.845 31.4087 220.343 29.9238 222.171 29.936C224 29.936 225.485 31.4332 225.472 33.2618C225.472 33.2741 225.472 33.2864 225.472 33.2864C225.46 35.1026 223.975 36.563 222.147 36.563ZM222.22 11C215.348 11.0614 209.813 16.6575 209.825 23.5177C209.825 32.5623 222.22 44 222.22 44C222.932 43.3496 234.615 32.5991 234.615 23.5177C234.627 16.6575 229.093 11.0614 222.22 11Z"></path>
    <path fill="white" d="M222.147 36.563C220.318 36.563 218.833 35.0658 218.845 33.2373C218.845 31.4087 220.343 29.9238 222.171 29.936C224 29.936 225.485 31.4333 225.472 33.2618C225.472 33.2741 225.472 33.2741 225.472 33.2864C225.46 35.1027 223.975 36.563 222.147 36.563Z"></path>
  </g>
  <defs>
    <clipPath id="clip0_616_182">
      <rect width="234.62" transform="translate(0 11)" height="33" fill="white"></rect>
    </clipPath>
  </defs>
</svg>