<?xml version="1.0" encoding="UTF-8" standalone="no"?><svg width="235" viewBox="0 0 235 54" height="54" fill="none" xmlns="http://www.w3.org/2000/svg">
  <g clip-path="url(#clip0_616_165)">
    <path fill-rule="evenodd" fill="white" d="M179.532 16.9419C179.785 16.9419 179.994 17.1203 180.023 17.373V17.4622V25.3554C180.023 25.8014 180.053 26.2473 180.113 26.6933C180.47 28.7892 181.677 30.1717 183.748 30.1717C188.113 30.1717 187.576 25.0581 187.576 24.6717V17.4771C187.576 17.2244 187.755 17.0163 187.993 16.9717H188.083H190.899C191.152 16.9717 191.36 17.1501 191.39 17.4027V17.4919V33.1446C191.39 34.3041 191.271 35.6271 190.913 36.7122C190.422 38.2136 189.498 39.5068 188.157 40.2798C186.265 41.3798 183.748 41.4392 180.008 41.1122C179.8 41.1122 179.606 40.9636 179.561 40.7555V40.696V38.0946C179.561 37.6635 179.83 37.5595 180.217 37.6041L180.634 37.6636C181.632 37.7973 182.63 37.8419 183.629 37.8122L183.882 37.7973C185.446 37.6635 187.636 37.069 187.755 34.4676V34.2298V31.8514C186.399 33.0852 185.178 33.5757 183.39 33.5757C180.664 33.5609 178.623 32.6392 177.178 30.3501C176.269 28.9082 176.12 27.0649 176.09 25.296V24.6717V17.4622C176.09 17.2095 176.269 17.0014 176.507 16.9568H176.582L179.532 16.9419ZM147.74 16.9419C150.452 16.9419 153.029 18.1163 154.638 20.3163C155.755 21.8325 156.277 23.7649 156.277 25.623C156.277 27.4811 155.755 29.4135 154.638 30.9298C153.029 33.1298 150.437 34.2892 147.74 34.3041C146.236 34.3041 144.627 33.7541 143.331 32.8325L143.092 32.6541V39.7744C143.092 40.0568 142.884 40.3095 142.601 40.3541H142.496H139.755C139.472 40.3541 139.219 40.146 139.174 39.8636V39.7744V26.2919C139.174 23.1852 139.964 21.3419 140.992 20.019C142.422 18.1608 144.746 16.9419 147.74 16.9419ZM166.392 16.9419C168.448 16.9419 170.623 17.5365 171.77 18.7852C172.813 19.9298 173.334 21.6244 173.379 23.8095V24.1365V34.4379C173.379 34.6906 173.2 34.8987 172.962 34.9433H172.872H164.366C162.489 34.9433 160.984 34.5271 159.867 33.6352C158.735 32.7433 158.139 31.3906 158.079 29.7257V29.369C158.079 24.1365 163.621 23.4825 165.439 23.4825H169.655V23.1108C169.655 22.3527 169.371 21.1784 168.284 20.6284C166.749 19.8406 163.725 20.1379 161.193 21.7433C160.91 21.9217 160.537 21.8473 160.463 21.55L160.448 21.4757L160.299 18.8892V18.8744C160.299 18.7406 160.373 18.6217 160.478 18.5473C162.295 17.4919 164.321 16.9419 166.392 16.9419ZM169.669 26.6487H165.677C162.802 26.6487 162.087 28.2987 162.012 29.25V29.4284C161.997 30.0973 162.31 30.7217 162.861 31.123C163.308 31.4798 163.86 31.6879 164.425 31.7473L164.649 31.7622H169.684V26.6487H169.669ZM147.74 20.2717C145.685 20.2865 144.195 21.773 143.569 23.646C143.122 24.9392 143.122 26.3365 143.569 27.6298C144.195 29.5027 145.685 30.9892 147.74 31.0041C149.796 30.9892 151.286 29.5027 151.912 27.6298C152.359 26.3365 152.359 24.9392 151.912 23.646C151.286 21.773 149.796 20.2865 147.74 20.2717Z" clip-rule="evenodd"></path>
    <path fill-rule="evenodd" fill="#FF5A00" d="M90.6531 17.3284C93.3796 17.3433 95.9864 18.5324 97.6103 20.8067C98.6831 22.3081 99.2043 24.1067 99.2639 25.95V26.2919V34.8095C99.2639 35.9689 99.1448 37.3067 98.7873 38.3919C98.2955 39.9081 97.3721 41.2013 96.0314 41.9743C94.1244 43.0742 91.6066 43.1485 87.8675 42.8216C87.6588 42.8216 87.4653 42.673 87.4207 42.4649V42.4054V39.7892C87.4207 39.3432 87.6885 39.254 88.0761 39.2987L88.4932 39.3581C89.4913 39.4919 90.4894 39.5365 91.4876 39.5068L91.7409 39.4919C93.3049 39.3581 95.5098 38.7635 95.6289 36.1473V35.9243V33.7541C94.1691 34.75 92.441 35.2851 90.668 35.2703C87.9419 35.2554 85.3348 34.0514 83.7109 31.7919C81.4765 28.6851 81.4765 23.9284 83.7109 20.8216C85.3199 18.5473 87.927 17.3433 90.6531 17.3284ZM197.766 27.4216C200.045 27.3919 201.923 29.2203 201.952 31.4946C201.982 33.7689 200.15 35.6419 197.87 35.6716C195.591 35.7014 193.714 33.873 193.684 31.5986C193.684 31.5838 193.684 31.5689 193.684 31.554C193.669 29.2797 195.487 27.4365 197.766 27.4216ZM121.506 17.3284C124.232 17.3433 126.839 18.5621 128.478 20.8959C129.61 22.5014 130.132 24.523 130.132 26.5C130.132 28.477 129.61 30.4986 128.478 32.1041C126.854 34.423 124.247 35.6567 121.506 35.6716C118.765 35.6865 116.172 34.423 114.534 32.1041C113.417 30.4986 112.88 28.477 112.88 26.5C112.88 24.523 113.417 22.5014 114.534 20.8959C116.172 18.577 118.78 17.3433 121.506 17.3284ZM61.5883 10C61.8266 10.0149 62.0203 10.1932 62.0501 10.4311V10.5203V35.1513C62.065 35.3892 61.9011 35.6122 61.6628 35.6716H61.5883H58.8918C58.6535 35.6567 58.4598 35.4784 58.43 35.2405V35.1513V10.5203C58.4151 10.2824 58.579 10.0595 58.8173 10.0149H58.8918L61.5883 10ZM54.3183 10C54.5567 10.0149 54.7503 10.1932 54.7801 10.4311V10.5203V35.1513C54.795 35.3892 54.6311 35.6122 54.3928 35.6716H54.3183H51.6219C51.3835 35.6567 51.1898 35.4784 51.16 35.2405V35.1513V10.5203C51.1451 10.2824 51.309 10.0595 51.5474 10.0149H51.6219L54.3183 10ZM109.513 17.3284H109.722C110.288 17.3433 110.854 17.3878 111.405 17.4919L111.539 17.5216C111.897 17.6257 111.972 17.8189 111.972 18.2648V20.4946C111.972 20.9554 111.674 21.1784 111.271 21.0892C108.039 20.4054 106.013 21.8324 105.923 24.8351V25.0432V35.1365C105.923 35.3892 105.744 35.6122 105.491 35.6567H105.417H102.482C102.228 35.6567 102.02 35.4635 101.99 35.2257V35.1365V24.7905C101.99 22.0851 103.182 20.5392 104.15 19.5581C105.565 18.1311 107.487 17.3284 109.513 17.3284ZM72.3591 17.3284C79.4651 17.3284 80.3739 24.1811 80.1804 27.4365C80.1804 27.6743 80.0164 27.8676 79.7928 27.9122H79.7035H68.158C68.3369 30.3054 70.2736 32 72.6125 32.1784C74.9514 32.3567 76.7538 31.7621 78.2735 30.7662C78.6756 30.4986 78.9439 30.677 78.9885 31.0932V31.1824V33.5162C78.9885 34.0365 78.929 34.2446 78.6459 34.4081C77.2456 35.2405 75.3684 35.7459 72.5678 35.6419C69.8116 35.5378 67.1747 34.4081 65.5361 32.0743C64.4039 30.4689 63.8676 28.4473 63.8676 26.4703C63.8676 25.623 63.9718 24.7757 64.1655 23.9581C64.9253 20.9406 67.1598 17.3284 72.3591 17.3284ZM41.3724 17.3284C43.4431 17.3284 45.6331 17.923 46.7951 19.2014C47.8528 20.3757 48.3742 22.0851 48.4189 24.3149V24.6568V35.1513C48.4189 35.4041 48.2401 35.6122 48.0018 35.6716H47.9124H39.3314C37.4394 35.6716 35.9199 35.2405 34.8026 34.3338C33.6555 33.4121 33.0596 32.0446 33 30.35V29.9932C33 24.6716 38.6014 24.0027 40.4189 24.0027H44.6796V23.6162C44.6796 22.8432 44.3817 21.654 43.3091 21.0892C41.7597 20.2865 38.7058 20.5838 36.1583 22.2189C35.8752 22.4122 35.5028 22.323 35.4283 22.0257L35.4134 21.9513L35.2495 19.3203V19.3054C35.2495 19.1716 35.3091 19.0378 35.4283 18.9784C37.2309 17.8932 39.2719 17.3284 41.3724 17.3284ZM44.6647 27.2135H40.6424C37.7374 27.2135 37.0223 28.8932 36.9478 29.8743L36.9329 30.0527C36.918 30.7365 37.2309 31.3757 37.7821 31.777C38.229 32.1338 38.7802 32.3567 39.3612 32.4014L39.5847 32.4162H44.6647V27.2135ZM121.506 20.8365C119.42 20.8514 117.931 22.427 117.29 24.3892C116.843 25.7567 116.843 27.2284 117.29 28.5959C117.916 30.573 119.42 32.1338 121.506 32.1486C123.577 32.1338 125.081 30.5581 125.722 28.5959C126.169 27.2284 126.169 25.7567 125.722 24.3892C125.081 22.427 123.577 20.8514 121.506 20.8365ZM90.6531 20.7622C88.5825 20.7622 87.078 22.3081 86.4523 24.2406C86.0051 25.5784 86.0051 27.0203 86.4523 28.3581C87.078 30.2905 88.5825 31.8365 90.6531 31.8365C94.9585 31.8365 95.4057 27.6743 95.4503 26.5148V26.2622V26.0838C95.4057 24.9243 94.9585 20.7622 90.6531 20.7622ZM72.3591 20.8365C69.3648 20.8365 68.2625 23.2297 68.2026 24.5973V24.7013H76.0537C76.0537 21.8473 74.0574 20.8365 72.3591 20.8365Z" clip-rule="evenodd"></path>
  </g>
  <defs>
    <clipPath id="clip0_616_165">
      <rect width="169" transform="translate(33 10)" height="33" fill="white"></rect>
    </clipPath>
  </defs>
</svg>