<?xml version="1.0" encoding="UTF-8" standalone="no"?><svg xmlns="http://www.w3.org/2000/svg" fill="none" height="54" viewBox="0 0 54 54" width="54">
<circle cx="27" cy="27" fill="#EBAC15" r="27" />
<path clip-rule="evenodd" d="M33.7501 31.5V22.5H32.4901C31.9726 22.5 31.6238 22.5 31.2413 23.355L29.0476 27.855L28.8451 28.2375C28.2938 29.2838 27.9226 29.97 27.1351 30.0263C26.1338 30.0263 25.8188 29.3513 25.2451 28.2263L22.7926 23.3775C22.65 22.8703 22.1942 22.5148 21.6676 22.5H20.2501V31.5H18.0001V20.25H21.8363C23.2184 20.2031 24.4577 21.0956 24.8513 22.4213L26.7976 26.595C26.9101 26.8425 26.9551 26.9213 27.0113 26.9213C27.0676 26.9213 27.1126 26.8538 27.2138 26.64L29.1713 22.5C29.5305 21.1448 30.7735 20.2137 32.1751 20.25H36.0001V31.5H33.7501ZM27.0001 12.375C27.7299 12.3751 28.4471 12.5651 29.0813 12.9263L37.3501 17.7075C38.6129 18.4553 39.3839 19.8174 39.3751 21.285V30.9713C39.3632 32.4451 38.5769 33.804 37.3051 34.5488L29.0813 39.375C27.8001 40.1284 26.2113 40.1284 24.9301 39.375L16.6613 34.5488C15.4008 33.7972 14.6277 32.4388 14.6251 30.9713V21.285C14.6231 19.8163 15.3975 18.4558 16.6613 17.7075L24.9301 12.9263C25.5602 12.5651 26.2738 12.375 27.0001 12.375M27.0001 10.125C25.8783 10.1231 24.776 10.4181 23.8051 10.98L15.5363 15.75C13.5702 16.8985 12.3654 19.008 12.3751 21.285V30.9713C12.3717 33.2524 13.591 35.3605 15.5701 36.495L23.8388 41.265C25.8156 42.4226 28.2633 42.4226 30.2401 41.265L38.4976 36.495C40.4439 35.3367 41.6332 33.2361 41.6251 30.9713V21.285C41.6348 19.0109 40.4352 16.9031 38.4751 15.75L30.2063 10.98C29.2309 10.4191 28.1252 10.1243 27.0001 10.125Z" fill="white" fill-rule="evenodd" />
</svg>