<?xml version="1.0" encoding="UTF-8" standalone="no"?><svg width="235" viewBox="0 0 235 54" height="54" fill="none" xmlns="http://www.w3.org/2000/svg">
  <path fill="black" d="M86.9437 32.9015L91.1158 33.2944C89.832 36.8246 86.7306 38.8913 82.6304 38.8913C77.9244 38.8913 75 36.2547 75 31.9747C75 29.2302 75.9268 26.9117 77.7805 25.0221C79.6342 23.1325 81.9166 22.2056 84.628 22.2056C89.0851 22.2056 91.6885 24.881 91.6885 29.1582C91.6885 30.121 91.6165 30.8348 91.3675 31.6538H79.9219C79.8859 33.7924 81.0258 35.0042 83.1312 35.0042C84.9849 35.0042 86.2686 34.3291 86.9437 32.9015ZM80.3839 28.9452H86.8385C86.9464 27.0915 85.9477 25.9489 84.1991 25.9489C82.3455 25.9489 80.9898 27.0528 80.3839 28.9452Z"></path>
  <path fill="black" d="M109.868 36.5397C108.051 37.8234 105.696 38.4653 102.736 38.4653H91.5419L97.1388 16H107.409C111.866 16 114.289 17.8177 114.289 21.24C114.289 24.2004 112.115 26.4829 109.013 26.9449C111.26 27.3737 112.615 29.0476 112.615 31.33C112.615 33.5074 111.689 35.2559 109.868 36.5397ZM104.379 29.1582H99.1004L97.8526 34.1133H102.88C105.588 34.1133 107.16 33.0426 107.16 31.0838C107.16 29.8001 106.233 29.1582 104.379 29.1582ZM101.311 20.316L100.099 25.094H104.556C107.301 25.094 108.728 24.1672 108.728 22.3135C108.728 21.0298 107.837 20.316 106.161 20.316H101.311V20.316Z"></path>
  <path fill="black" d="M117.028 22.6317H122.199L118.24 38.4625H113.105L117.028 22.6317ZM117.457 20.7061L118.669 16H123.912L122.7 20.7061H117.457Z"></path>
  <path fill="black" d="M126.606 16H131.741L126.144 38.4625H121.01L126.606 16Z"></path>
  <path fill="black" d="M141.757 32.9015L145.929 33.2944C144.645 36.8246 141.544 38.8913 137.443 38.8913C132.737 38.8913 129.813 36.2519 129.813 31.9747C129.813 29.2302 130.74 26.9117 132.593 25.0221C134.447 23.1325 136.73 22.2056 139.438 22.2056C143.895 22.2056 146.499 24.881 146.499 29.1582C146.499 30.121 146.427 30.8348 146.178 31.6538H134.732C134.696 33.7924 135.836 35.0042 137.941 35.0042C139.795 35.0042 141.079 34.3291 141.757 32.9015ZM135.197 28.9452H141.652C141.759 27.0915 140.761 25.9489 139.012 25.9489C137.158 25.9489 135.803 27.0528 135.197 28.9452Z"></path>
  <path fill="black" d="M147.987 33.4714L149.805 26.2339H147.63L148.413 23.0965L149.553 22.9194C150.981 22.6704 151.728 22.1005 152.619 20.352L153.653 18.2493H156.863L155.792 22.6344H160L159.073 26.2366H154.901L153.224 32.8683C152.903 34.188 153.296 34.8299 154.58 34.8299C155.615 34.8299 156.398 34.686 157.291 34.2959L156.437 37.5772C154.724 38.5759 153.476 38.8969 151.802 38.8969C148.701 38.8913 147.132 36.7527 147.987 33.4714Z"></path>
</svg>