<?xml version="1.0" encoding="UTF-8" standalone="no"?><svg width="54" viewBox="0 0 54 54" height="54" fill="none" xmlns="http://www.w3.org/2000/svg">
  <circle r="27" fill="#107B1E" cy="27" cx="27"></circle>
  <path fill="white" d="M25.5937 25.2L22.8375 22.455L21.06 24.2325L25.5937 28.7775L32.94 21.4313L31.1625 19.6425L25.5937 25.2Z"></path>
  <path fill="white" d="M34.875 33.75C37.62 31.4775 39.375 28.0463 39.375 24.21C39.375 17.3812 33.8288 11.835 27 11.835C20.1712 11.835 14.625 17.3812 14.625 24.21C14.625 28.0463 16.38 31.4775 19.125 33.75L16.8863 39.1612C16.74 39.51 16.7963 39.915 17.0213 40.23C17.2463 40.545 17.6063 40.7137 18 40.6575L21.0375 40.3538L22.9838 41.9288C23.175 42.0863 23.4225 42.165 23.67 42.165C23.7825 42.165 23.8837 42.1538 23.9962 42.12C24.345 42.0075 24.615 41.7375 24.7163 41.3888L26.1337 36.54C26.4262 36.5625 26.7075 36.585 27.0113 36.585C27.315 36.585 27.5963 36.5625 27.8775 36.54L29.295 41.3888C29.3963 41.715 29.6437 41.985 29.9587 42.1087C30.0825 42.1537 30.2062 42.1762 30.33 42.1762C30.5437 42.1762 30.7462 42.12 30.9262 41.9962L33.1875 40.5112L36.0562 40.6687C36.4275 40.6912 36.7875 40.5112 37.0012 40.2075C37.215 39.9037 37.26 39.51 37.1137 39.1612L34.875 33.75ZM23.085 39.2175L22.0612 38.385C21.8362 38.205 21.555 38.115 21.2737 38.1487L19.5975 38.3175L20.97 34.9988C21.9038 35.5275 22.9163 35.9212 23.9738 36.1912L23.0962 39.2175H23.085ZM16.875 24.21C16.875 18.6188 21.4088 14.085 27 14.085C32.5912 14.085 37.125 18.6188 37.125 24.21C37.125 29.8012 32.5912 34.335 27 34.335C21.4088 34.335 16.875 29.8012 16.875 24.21ZM32.94 38.3175C32.7038 38.3062 32.4788 38.3625 32.2875 38.4975L30.96 39.3637L30.0375 36.18C31.095 35.91 32.1075 35.5162 33.0413 34.9875L34.4475 38.385L32.94 38.3062V38.3175Z"></path>
</svg>