<?xml version="1.0" encoding="UTF-8" standalone="no"?><svg width="54" viewBox="0 0 54 54" height="54" fill="none" xmlns="http://www.w3.org/2000/svg">
  <rect width="54" rx="27" height="54" fill="#285977"></rect>
  <path fill="white" d="M33.0703 18.3125C32.1953 18.349 31.4844 18.6406 30.9375 19.1875C30.3906 19.7708 30.099 20.5 30.0625 21.375C30.099 22.25 30.3906 22.9792 30.9375 23.5625C31.5208 24.1094 32.2318 24.401 33.0703 24.4375C33.9089 24.401 34.6198 24.1094 35.2031 23.5625C35.7865 22.9792 36.0781 22.25 36.0781 21.375C36.0781 20.5 35.8047 19.7708 35.2578 19.1875C34.6745 18.6406 33.9453 18.349 33.0703 18.3125ZM33.0703 22.6875C32.3047 22.6146 31.8854 22.1771 31.8125 21.375C31.8854 20.5729 32.3047 20.1354 33.0703 20.0625C33.8724 20.1354 34.2917 20.5729 34.3281 21.375C34.2917 22.1771 33.8724 22.6146 33.0703 22.6875ZM40.6172 14.5391C40.5443 14.2109 40.3255 13.9922 39.9609 13.8828C38.2474 13.5547 36.7344 13.4271 35.4219 13.5C32.651 13.5365 30.3359 14.2109 28.4766 15.5234C26.6536 16.7995 25.1224 18.4583 23.8828 20.5H18.1953C17.7214 20.5 17.2656 20.6458 16.8281 20.9375C16.3906 21.1927 16.0625 21.5391 15.8438 21.9766L13.1641 27.3359C13.0547 27.5182 13 27.7188 13 27.9375C13.0729 28.7396 13.5104 29.1771 14.3125 29.25H20C21.4583 29.2865 22.6979 29.7969 23.7188 30.7812C24.7031 31.7656 25.2135 33.0052 25.25 34.5V40.1875C25.3229 40.9896 25.7422 41.4271 26.5078 41.5C26.7266 41.5 26.9271 41.4453 27.1094 41.3359L32.5234 38.6562C32.9245 38.4375 33.2526 38.1094 33.5078 37.6719C33.7995 37.2344 33.9453 36.7786 33.9453 36.3047V30.6172C35.987 29.3776 37.6458 27.8281 38.9219 25.9688C40.1979 24.1458 40.8542 21.849 40.8906 19.0781C41.0365 17.7656 40.9453 16.2526 40.6172 14.5391ZM15.0234 27.5L17.4297 22.7422C17.612 22.487 17.8672 22.3229 18.1953 22.25H22.8438C22.3698 23.1979 21.8594 24.2188 21.3125 25.3125C20.9479 26.0781 20.6016 26.8073 20.2734 27.5C20.2005 27.5 19.7812 27.5 19.0156 27.5C18.3594 27.5 17.6484 27.5 16.8828 27.5C16.0807 27.5 15.4609 27.5 15.0234 27.5ZM32.1953 36.3047C32.1224 36.6328 31.9583 36.888 31.7031 37.0703L27 39.4766C27 39.0026 27 38.3646 27 37.5625C27 36.7604 27 36.0312 27 35.375C27 34.6823 27 34.2995 27 34.2266L26.9453 34.2812C28.0391 33.6979 29.151 33.1328 30.2812 32.5859C30.974 32.2578 31.612 31.9479 32.1953 31.6562V36.3047ZM26.6719 32.4766C26.3073 31.3464 25.724 30.3802 24.9219 29.5781C24.1198 28.776 23.1536 28.1927 22.0234 27.8281C22.2786 27.3177 22.5521 26.7891 22.8438 26.2422C23.6458 24.4557 24.5755 22.724 25.6328 21.0469C26.6536 19.3698 27.9479 18.0026 29.5156 16.9453C31.0833 15.8516 33.0703 15.2865 35.4766 15.25C36.5703 15.2135 37.7552 15.2865 39.0312 15.4688C39.2135 16.7083 39.2865 17.875 39.25 18.9688C39.25 19.0052 39.25 19.0417 39.25 19.0781C39.2135 21.4479 38.6302 23.4167 37.5 24.9844C36.4062 26.5521 35.0208 27.8464 33.3438 28.8672C31.6667 29.9245 29.9349 30.8724 28.1484 31.7109C27.638 31.9661 27.1458 32.2214 26.6719 32.4766ZM18.5781 31C17.2292 30.9635 15.9896 31.6016 14.8594 32.9141C13.7292 34.2266 13.1094 36.5052 13 39.75V41.5H14.6953C17.7943 41.3906 20.0182 40.7891 21.3672 39.6953C22.7526 38.6016 23.4453 37.362 23.4453 35.9766C23.4453 34.5911 22.9714 33.388 22.0234 32.3672C21.1849 31.4922 20.0365 31.0365 18.5781 31ZM21.4766 36.9609C20.6745 38.7109 18.4323 39.6406 14.75 39.75C14.7135 39.6042 14.75 38.9661 14.8594 37.8359C14.9688 36.7057 15.2969 35.5938 15.8438 34.5C16.3906 33.4062 17.3021 32.8229 18.5781 32.75C19.4896 32.7865 20.237 33.0781 20.8203 33.625C21.1849 33.9896 21.4401 34.4818 21.5859 35.1016C21.7682 35.7214 21.7318 36.3411 21.4766 36.9609Z"></path>
</svg>